# xmcd
#
# Track frame offsets:
#	150
#	14895
#	28358
#	41178
#	53253
#	66565
#	79697
#	92582
#	105369
#	120474
#	135440
#	148078
#	161126
#	175713
#	187000
#	200237
#	212697
#
# Disc length: 3031 seconds
# Revision: 0
# Processed by: cddbd v1.5.2PL0 Copyright (c) Steve Scherf et al.
# Submitted via: dBpowerAMP V12.0
#
DISCID=f80bd511
DTITLE=Various Artist - Street Walker Blues: Vintage Songs About Prostitution: Volume 1
DYEAR=1929
DGENRE=Blues
TTITLE0=Virginia Liston - I've Got What It Takes
TTITLE1=Memphis Minnie - Down In The Alley
TTITLE2=Ethel Waters - Bring Your Greenbacks
TTITLE3=Lonnie Johnson - Crowing Rooster Blues
TTITLE4=Lil Johnson - Come And Get It
TTITLE5=Georgia White - I'll Keep Sittin' On It (If I Can't Sell It)
TTITLE6=Lucille Bogan (Bessie Jackson) - Struttin' My Stuff
TTITLE7=C. Williams - Street Walkin' Blues
TTITLE8=Cab Calloway - Nobody's Sweetheart
TTITLE9=Billie Pierce - I'm In The Racket
TTITLE10=Lovin' Sam Theard - State Street Blues
TTITLE11=The Memphis Jug Band - She Done Sold It Out
TTITLE12=Blind Blake - Hastings Street
TTITLE13=Georgia White - Walking The Street
TTITLE14=George Williams And Bessie Brown - You Can't Proposition Me
TTITLE15=Lil Johnson - Must Get Miine In Front
TTITLE16=Lucille Bogan (Bessie Jackson) - They Ain't Walking No More
EXTD=
EXTT0=
EXTT1=
EXTT2=
EXTT3=
EXTT4=
EXTT5=
EXTT6=
EXTT7=
EXTT8=
EXTT9=
EXTT10=
EXTT11=
EXTT12=
EXTT13=
EXTT14=
EXTT15=
EXTT16=
PLAYORDER=
